<svg class="railroad-diagram" width="400" height="80" viewBox="0 0 400 80" xmlns="http://www.w3.org/2000/svg" xmlns:xlink="http://www.w3.org/1999/xlink">
<g transform="translate(.5 .5)">
<g>
<path d="M20 30v20m10 -20v20m-10 -10h61"></path>
<text x="20" y="25" style="text-anchor:start">binary</text>
</g>
<path d="M81 40h10"></path>
<g class="terminal ">
<path d="M91 40h0"></path>
<path d="M119.5 40h0"></path>
<rect x="91" y="29" width="28.5" height="22" rx="10" ry="10"></rect>
<text x="105.25" y="44">&#60;</text>
</g>
<path d="M119.5 40h10"></path>
<g>
<path d="M129.5 40h0"></path>
<path d="M311.5 40h0"></path>
<path d="M129.5 40a10 10 0 0 0 10 -10v0a10 10 0 0 1 10 -10"></path>
<g>
<path d="M149.5 20h142"></path>
</g>
<path d="M291.5 20a10 10 0 0 1 10 10v0a10 10 0 0 0 10 10"></path>
<path d="M129.5 40h20"></path>
<g>
<path d="M149.5 40h0"></path>
<path d="M291.5 40h0"></path>
<path d="M149.5 40h10"></path>
<g class="non-terminal ">
<path d="M159.5 40h0"></path>
<path d="M281.5 40h0"></path>
<rect x="159.5" y="29" width="122" height="22"></rect>
<text x="220.5" y="44">2 hex digits</text>
</g>
<path d="M281.5 40h10"></path>
<path d="M159.5 40a10 10 0 0 0 -10 10v0a10 10 0 0 0 10 10"></path>
<g>
<path d="M159.5 60h122"></path>
</g>
<path d="M281.5 60a10 10 0 0 0 10 -10v0a10 10 0 0 0 -10 -10"></path>
</g>
<path d="M291.5 40h20"></path>
</g>
<path d="M311.5 40h10"></path>
<g class="terminal ">
<path d="M321.5 40h0"></path>
<path d="M350 40h0"></path>
<rect x="321.5" y="29" width="28.5" height="22" rx="10" ry="10"></rect>
<text x="335.75" y="44">></text>
</g>
<path d="M350 40h10"></path>
<path d="M 360 40 h 20 m -10 -10 v 20 m 10 -20 v 20"></path>
</g>
<style>
	svg {
		background-color: hsl(30,20%,95%);
	}
	path {
		stroke-width: 3;
		stroke: black;
		fill: rgba(0,0,0,0);
	}
	text {
		font: bold 14px monospace;
		text-anchor: middle;
		white-space: pre;
	}
	text.diagram-text {
		font-size: 12px;
	}
	text.diagram-arrow {
		font-size: 16px;
	}
	text.label {
		text-anchor: start;
	}
	text.comment {
		font: italic 12px monospace;
	}
	g.non-terminal text {
		/&#42;font-style: italic;&#42;/
	}
	rect {
		stroke-width: 3;
		stroke: black;
		fill: hsl(120,100%,90%);
	}
	rect.group-box {
		stroke: gray;
		stroke-dasharray: 10 5;
		fill: none;
	}
	path.diagram-text {
		stroke-width: 3;
		stroke: black;
		fill: white;
		cursor: help;
	}
	g.diagram-text:hover path.diagram-text {
		fill: #eee;
	}</style>
</svg>
