<svg class="railroad-diagram" width="650.5" height="101" viewBox="0 0 650.5 101" xmlns="http://www.w3.org/2000/svg" xmlns:xlink="http://www.w3.org/1999/xlink">
<g transform="translate(.5 .5)">
<g>
<path d="M20 30v20m0 -10h52.5"></path>
<text x="20" y="25" style="text-anchor:start">tuple</text>
</g>
<path d="M72.5 40h10"></path>
<g class="terminal ">
<path d="M82.5 40h0"></path>
<path d="M111 40h0"></path>
<rect x="82.5" y="29" width="28.5" height="22" rx="10" ry="10"></rect>
<text x="96.75" y="44">(</text>
</g>
<path d="M111 40h10"></path>
<g>
<path d="M121 40h0"></path>
<path d="M243.5 40h0"></path>
<path d="M121 40a10 10 0 0 0 10 -10v0a10 10 0 0 1 10 -10"></path>
<g>
<path d="M141 20h82.5"></path>
</g>
<path d="M223.5 20a10 10 0 0 1 10 10v0a10 10 0 0 0 10 10"></path>
<path d="M121 40h20"></path>
<g>
<path d="M141 40h0"></path>
<path d="M223.5 40h0"></path>
<path d="M141 40h10"></path>
<g class="non-terminal ">
<path d="M151 40h0"></path>
<path d="M213.5 40h0"></path>
<rect x="151" y="29" width="62.5" height="22"></rect>
<text x="182.25" y="44">value</text>
</g>
<path d="M213.5 40h10"></path>
<path d="M151 40a10 10 0 0 0 -10 10v10a10 10 0 0 0 10 10"></path>
<g class="terminal ">
<path d="M151 70h17"></path>
<path d="M196.5 70h17"></path>
<rect x="168" y="59" width="28.5" height="22" rx="10" ry="10"></rect>
<text x="182.25" y="74">,</text>
</g>
<path d="M213.5 70a10 10 0 0 0 10 -10v-10a10 10 0 0 0 -10 -10"></path>
</g>
<path d="M223.5 40h20"></path>
</g>
<g>
<path d="M243.5 40h0"></path>
<path d="M437 40h0"></path>
<path d="M243.5 40h20"></path>
<g>
<path d="M263.5 40h153.5"></path>
</g>
<path d="M417 40h20"></path>
<path d="M243.5 40a10 10 0 0 1 10 10v0a10 10 0 0 0 10 10"></path>
<g>
<path d="M263.5 60h0"></path>
<path d="M417 60h0"></path>
<g class="non-terminal ">
<path d="M263.5 60h0"></path>
<path d="M368.5 60h0"></path>
<rect x="263.5" y="49" width="105" height="22"></rect>
<text x="316" y="64">whitespace</text>
</g>
<path d="M368.5 60h10"></path>
<path d="M378.5 60h10"></path>
<g class="terminal ">
<path d="M388.5 60h0"></path>
<path d="M417 60h0"></path>
<rect x="388.5" y="49" width="28.5" height="22" rx="10" ry="10"></rect>
<text x="402.75" y="64">,</text>
</g>
</g>
<path d="M417 60a10 10 0 0 0 10 -10v0a10 10 0 0 1 10 -10"></path>
</g>
<path d="M437 40h10"></path>
<g class="non-terminal ">
<path d="M447 40h0"></path>
<path d="M552 40h0"></path>
<rect x="447" y="29" width="105" height="22"></rect>
<text x="499.5" y="44">whitespace</text>
</g>
<path d="M552 40h10"></path>
<path d="M562 40h10"></path>
<g class="terminal ">
<path d="M572 40h0"></path>
<path d="M600.5 40h0"></path>
<rect x="572" y="29" width="28.5" height="22" rx="10" ry="10"></rect>
<text x="586.25" y="44">)</text>
</g>
<path d="M600.5 40h10"></path>
<path d="M 610.5 40 h 20 m 0 -10 v 20"></path>
</g>
<style>
	svg {
		background-color: hsl(30,20%,95%);
	}
	path {
		stroke-width: 3;
		stroke: black;
		fill: rgba(0,0,0,0);
	}
	text {
		font: bold 14px monospace;
		text-anchor: middle;
		white-space: pre;
	}
	text.diagram-text {
		font-size: 12px;
	}
	text.diagram-arrow {
		font-size: 16px;
	}
	text.label {
		text-anchor: start;
	}
	text.comment {
		font: italic 12px monospace;
	}
	g.non-terminal text {
		/&#42;font-style: italic;&#42;/
	}
	rect {
		stroke-width: 3;
		stroke: black;
		fill: hsl(120,100%,90%);
	}
	rect.group-box {
		stroke: gray;
		stroke-dasharray: 10 5;
		fill: none;
	}
	path.diagram-text {
		stroke-width: 3;
		stroke: black;
		fill: white;
		cursor: help;
	}
	g.diagram-text:hover path.diagram-text {
		fill: #eee;
	}</style>
</svg>
