<svg class="railroad-diagram" width="482" height="392" viewBox="0 0 482 392" xmlns="http://www.w3.org/2000/svg" xmlns:xlink="http://www.w3.org/1999/xlink">
<g transform="translate(.5 .5)">
<g>
<path d="M20 21v20m0 -10h52.5"></path>
<text x="20" y="16" style="text-anchor:start">value</text>
</g>
<path d="M72.5 31h10"></path>
<g class="non-terminal ">
<path d="M82.5 31h0"></path>
<path d="M187.5 31h0"></path>
<rect x="82.5" y="20" width="105" height="22"></rect>
<text x="135" y="35">whitespace</text>
</g>
<path d="M187.5 31h10"></path>
<g>
<path d="M197.5 31h0"></path>
<path d="M317 31h0"></path>
<path d="M197.5 31h20"></path>
<g class="non-terminal ">
<path d="M217.5 31h4.25"></path>
<path d="M292.75 31h4.25"></path>
<rect x="221.75" y="20" width="71" height="22"></rect>
<text x="257.25" y="35">string</text>
</g>
<path d="M297 31h20"></path>
<path d="M197.5 31a10 10 0 0 1 10 10v10a10 10 0 0 0 10 10"></path>
<g class="non-terminal ">
<path d="M217.5 61h4.25"></path>
<path d="M292.75 61h4.25"></path>
<rect x="221.75" y="50" width="71" height="22"></rect>
<text x="257.25" y="65">binary</text>
</g>
<path d="M297 61a10 10 0 0 0 10 -10v-10a10 10 0 0 1 10 -10"></path>
<path d="M197.5 31a10 10 0 0 1 10 10v40a10 10 0 0 0 10 10"></path>
<g class="non-terminal ">
<path d="M217.5 91h0"></path>
<path d="M297 91h0"></path>
<rect x="217.5" y="80" width="79.5" height="22"></rect>
<text x="257.25" y="95">integer</text>
</g>
<path d="M297 91a10 10 0 0 0 10 -10v-40a10 10 0 0 1 10 -10"></path>
<path d="M197.5 31a10 10 0 0 1 10 10v70a10 10 0 0 0 10 10"></path>
<g class="non-terminal ">
<path d="M217.5 121h8.5"></path>
<path d="M288.5 121h8.5"></path>
<rect x="226" y="110" width="62.5" height="22"></rect>
<text x="257.25" y="125">float</text>
</g>
<path d="M297 121a10 10 0 0 0 10 -10v-70a10 10 0 0 1 10 -10"></path>
<path d="M197.5 31a10 10 0 0 1 10 10v100a10 10 0 0 0 10 10"></path>
<g class="non-terminal ">
<path d="M217.5 151h17"></path>
<path d="M280 151h17"></path>
<rect x="234.5" y="140" width="45.5" height="22"></rect>
<text x="257.25" y="155">tag</text>
</g>
<path d="M297 151a10 10 0 0 0 10 -10v-100a10 10 0 0 1 10 -10"></path>
<path d="M197.5 31a10 10 0 0 1 10 10v130a10 10 0 0 0 10 10"></path>
<g class="non-terminal ">
<path d="M217.5 181h17"></path>
<path d="M280 181h17"></path>
<rect x="234.5" y="170" width="45.5" height="22"></rect>
<text x="257.25" y="185">ref</text>
</g>
<path d="M297 181a10 10 0 0 0 10 -10v-130a10 10 0 0 1 10 -10"></path>
<path d="M197.5 31a10 10 0 0 1 10 10v160a10 10 0 0 0 10 10"></path>
<g class="non-terminal ">
<path d="M217.5 211h17"></path>
<path d="M280 211h17"></path>
<rect x="234.5" y="200" width="45.5" height="22"></rect>
<text x="257.25" y="215">map</text>
</g>
<path d="M297 211a10 10 0 0 0 10 -10v-160a10 10 0 0 1 10 -10"></path>
<path d="M197.5 31a10 10 0 0 1 10 10v190a10 10 0 0 0 10 10"></path>
<g class="non-terminal ">
<path d="M217.5 241h8.5"></path>
<path d="M288.5 241h8.5"></path>
<rect x="226" y="230" width="62.5" height="22"></rect>
<text x="257.25" y="245">array</text>
</g>
<path d="M297 241a10 10 0 0 0 10 -10v-190a10 10 0 0 1 10 -10"></path>
<path d="M197.5 31a10 10 0 0 1 10 10v220a10 10 0 0 0 10 10"></path>
<g class="non-terminal ">
<path d="M217.5 271h8.5"></path>
<path d="M288.5 271h8.5"></path>
<rect x="226" y="260" width="62.5" height="22"></rect>
<text x="257.25" y="275">tuple</text>
</g>
<path d="M297 271a10 10 0 0 0 10 -10v-220a10 10 0 0 1 10 -10"></path>
<path d="M197.5 31a10 10 0 0 1 10 10v250a10 10 0 0 0 10 10"></path>
<g class="terminal ">
<path d="M217.5 301h12.75"></path>
<path d="M284.25 301h12.75"></path>
<rect x="230.25" y="290" width="54" height="22" rx="10" ry="10"></rect>
<text x="257.25" y="305">true</text>
</g>
<path d="M297 301a10 10 0 0 0 10 -10v-250a10 10 0 0 1 10 -10"></path>
<path d="M197.5 31a10 10 0 0 1 10 10v280a10 10 0 0 0 10 10"></path>
<g class="terminal ">
<path d="M217.5 331h8.5"></path>
<path d="M288.5 331h8.5"></path>
<rect x="226" y="320" width="62.5" height="22" rx="10" ry="10"></rect>
<text x="257.25" y="335">false</text>
</g>
<path d="M297 331a10 10 0 0 0 10 -10v-280a10 10 0 0 1 10 -10"></path>
<path d="M197.5 31a10 10 0 0 1 10 10v310a10 10 0 0 0 10 10"></path>
<g class="terminal ">
<path d="M217.5 361h12.75"></path>
<path d="M284.25 361h12.75"></path>
<rect x="230.25" y="350" width="54" height="22" rx="10" ry="10"></rect>
<text x="257.25" y="365">null</text>
</g>
<path d="M297 361a10 10 0 0 0 10 -10v-310a10 10 0 0 1 10 -10"></path>
</g>
<path d="M317 31h10"></path>
<g class="non-terminal ">
<path d="M327 31h0"></path>
<path d="M432 31h0"></path>
<rect x="327" y="20" width="105" height="22"></rect>
<text x="379.5" y="35">whitespace</text>
</g>
<path d="M432 31h10"></path>
<path d="M 442 31 h 20 m 0 -10 v 20"></path>
</g>
<style>
	svg {
		background-color: hsl(30,20%,95%);
	}
	path {
		stroke-width: 3;
		stroke: black;
		fill: rgba(0,0,0,0);
	}
	text {
		font: bold 14px monospace;
		text-anchor: middle;
		white-space: pre;
	}
	text.diagram-text {
		font-size: 12px;
	}
	text.diagram-arrow {
		font-size: 16px;
	}
	text.label {
		text-anchor: start;
	}
	text.comment {
		font: italic 12px monospace;
	}
	g.non-terminal text {
		/&#42;font-style: italic;&#42;/
	}
	rect {
		stroke-width: 3;
		stroke: black;
		fill: hsl(120,100%,90%);
	}
	rect.group-box {
		stroke: gray;
		stroke-dasharray: 10 5;
		fill: none;
	}
	path.diagram-text {
		stroke-width: 3;
		stroke: black;
		fill: white;
		cursor: help;
	}
	g.diagram-text:hover path.diagram-text {
		fill: #eee;
	}</style>
</svg>
